<svg id="Layer_2" data-name="Layer 2" fill="#ffffff" xmlns="http://www.w3.org/2000/svg" viewBox="0 0 706.66 480.49">
  <g id="Capa_1" data-name="Capa 1">
    <g>
      <path d="m372.1,257.59c-1.07-1.07-2.29-1.85-3.65-2.33-1.36-.49-2.77-.73-4.23-.73h-13.71v101.93h13.71c1.46,0,2.87-.24,4.23-.73,1.36-.49,2.57-1.24,3.65-2.26,1.07-1.02,1.94-2.31,2.62-3.86.68-1.55,1.02-3.4,1.02-5.54v-30.04c0-3.11-.49-5.42-1.46-6.93-.97-1.51-2.19-2.45-3.65-2.84,1.46-.49,2.67-1.48,3.65-2.99.97-1.51,1.46-3.81,1.46-6.93v-26.54c0-2.33-.34-4.35-1.02-6.05-.68-1.7-1.56-3.08-2.62-4.16Zm-3.06,85.45c0,2.62-.56,4.57-1.68,5.83-1.12,1.26-2.36,1.9-3.72,1.9h-6.42v-44.04h7.29c3.01,0,4.52,2.58,4.52,7.73v28.58Zm0-49.14c0,5.15-1.51,7.73-4.52,7.73h-7.29v-41.41h6.42c1.36,0,2.6.66,3.72,1.97,1.12,1.31,1.68,3.52,1.68,6.63v25.08Z"/>
      <polygon points="391.63 308.05 402.13 308.05 402.13 302.94 391.63 302.94 391.63 260.22 405.2 260.22 405.2 254.53 384.93 254.53 384.93 356.46 405.78 356.46 405.78 350.77 391.63 350.77 391.63 308.05"/>
      <polygon points="432.03 302.94 420.94 302.94 420.94 254.53 414.24 254.53 414.24 356.46 420.94 356.46 420.94 308.05 432.03 308.05 432.03 356.46 438.73 356.46 438.73 254.53 432.03 254.53 432.03 302.94"/>
      <rect x="448.94" y="254.53" width="6.71" height="101.93"/>
      <polygon points="494.44 254.53 488.17 254.53 488.17 335.46 488.02 335.46 473.15 254.53 465.42 254.53 465.42 356.46 471.11 356.46 471.11 274.65 471.25 274.65 486.66 356.46 494.44 356.46 494.44 254.53"/>
      <path d="m521.85,355.8c1.36-.44,2.6-1.17,3.72-2.19,1.12-1.02,2.02-2.36,2.7-4.01.68-1.65,1.02-3.65,1.02-5.98v-76.26c0-2.33-.34-4.32-1.02-5.98-.68-1.65-1.58-2.99-2.7-4.01-1.12-1.02-2.36-1.75-3.72-2.19-1.36-.44-2.72-.66-4.08-.66h-13.71v101.93h13.71c1.36,0,2.72-.22,4.08-.66Zm-11.08-5.03v-90.55h6.42c1.36,0,2.6.58,3.72,1.75,1.12,1.17,1.68,3.31,1.68,6.42v74.22c0,3.11-.56,5.25-1.68,6.42-1.12,1.17-2.36,1.75-3.72,1.75h-6.42Z"/>
      <polygon points="347.74 382.05 357.22 382.05 357.22 478.29 363.93 478.29 363.93 382.05 373.26 382.05 373.26 376.36 347.74 376.36 347.74 382.05"/>
      <polygon points="398.49 424.77 387.4 424.77 387.4 376.36 380.7 376.36 380.7 478.29 387.4 478.29 387.4 429.88 398.49 429.88 398.49 478.29 405.19 478.29 405.19 376.36 398.49 376.36 398.49 424.77"/>
      <polygon points="422.11 429.88 432.61 429.88 432.61 424.77 422.11 424.77 422.11 382.05 435.67 382.05 435.67 376.36 415.4 376.36 415.4 478.29 436.25 478.29 436.25 472.6 422.11 472.6 422.11 429.88"/>
      <polygon points="473.44 376.36 466.73 376.36 466.73 478.29 486.12 478.29 486.12 473.18 473.44 473.18 473.44 376.36"/>
      <rect x="493.41" y="376.36" width="6.71" height="101.93"/>
      <path d="m531.4,378.55c-1.12-1.07-2.36-1.85-3.72-2.33-1.36-.49-2.72-.73-4.08-.73h-2.19c-1.36,0-2.75.24-4.16.73-1.41.49-2.65,1.26-3.72,2.33-1.07,1.07-1.95,2.46-2.62,4.16-.68,1.7-1.02,3.72-1.02,6.05v77.14c0,2.33.34,4.35,1.02,6.05.68,1.7,1.55,3.09,2.62,4.16,1.07,1.07,2.31,1.85,3.72,2.33,1.41.49,2.79.73,4.16.73h1.17c1.26,0,2.62-.36,4.08-1.09s2.82-1.77,4.08-3.13l.88,3.35h3.5v-41.27h-12.39v5.69h5.69v22.17c0,3.11-.56,5.32-1.68,6.63-1.12,1.31-2.36,1.97-3.72,1.97h-1.02c-1.36,0-2.6-.66-3.72-1.97-1.12-1.31-1.68-3.52-1.68-6.63v-75.1c0-3.11.56-5.32,1.68-6.63,1.12-1.31,2.36-1.97,3.72-1.97h1.02c1.36,0,2.6.66,3.72,1.97,1.12,1.31,1.68,3.52,1.68,6.63v27.71h6.71v-28.73c0-2.33-.34-4.35-1.02-6.05-.68-1.7-1.58-3.08-2.7-4.16Z"/>
      <polygon points="562.67 424.77 551.59 424.77 551.59 376.36 544.88 376.36 544.88 478.29 551.59 478.29 551.59 429.88 562.67 429.88 562.67 478.29 569.38 478.29 569.38 376.36 562.67 376.36 562.67 424.77"/>
      <polygon points="576.82 382.05 586.3 382.05 586.3 478.29 593 478.29 593 382.05 602.34 382.05 602.34 376.36 576.82 376.36 576.82 382.05"/>
      <path d="m625.59,426.74c-2.29-3.35-4.4-6.8-6.34-10.35-1.95-3.55-2.92-7.61-2.92-12.18v-14.44c0-3.11.55-5.32,1.66-6.63,1.1-1.31,2.33-1.97,3.67-1.97h1.01c1.34,0,2.57.66,3.67,1.97,1.1,1.31,1.66,3.52,1.66,6.63v27.71h6.27v-28.73c0-2.33-.34-4.35-1.03-6.05-.68-1.7-1.59-3.08-2.71-4.16-1.13-1.07-2.37-1.85-3.74-2.33-1.37-.49-2.74-.73-4.11-.73h-1.61c-1.37,0-2.76.24-4.18.73-1.42.49-2.67,1.26-3.74,2.33-1.08,1.07-1.96,2.46-2.64,4.16-.68,1.7-1.03,3.72-1.03,6.05v16.48c0,3.11.46,5.98,1.38,8.6.92,2.62,2.06,5.1,3.43,7.44,1.36,2.33,2.84,4.59,4.45,6.78,1.6,2.19,3.08,4.42,4.45,6.71,1.36,2.29,2.5,4.69,3.43,7.22.92,2.53,1.38,5.3,1.38,8.31v14.58c0,3.11-.6,5.32-1.8,6.63-1.2,1.31-2.47,1.97-3.82,1.97h-1.01c-1.35,0-2.62-.66-3.82-1.97-1.2-1.31-1.8-3.52-1.8-6.63v-27.71h-6.27v28.73c0,2.33.34,4.35,1.03,6.05.68,1.7,1.59,3.09,2.71,4.16,1.13,1.07,2.4,1.85,3.81,2.33s2.81.73,4.18.73h2.05c1.46,0,2.88-.24,4.25-.73,1.37-.49,2.59-1.26,3.67-2.33,1.08-1.07,1.96-2.45,2.64-4.16.68-1.7,1.03-3.72,1.03-6.05v-16.48c0-4.67-.97-8.77-2.92-12.32-1.95-3.55-4.06-7-6.34-10.35Z"/>
      <polygon points="0 277.82 22.22 277.82 22.22 479.09 50.88 479.09 50.88 277.82 73.1 277.82 73.1 253.99 0 253.99 0 277.82"/>
      <polygon points="292.8 354.15 280.56 354.15 280.56 252.07 251.9 252.07 251.9 477.17 280.56 477.17 280.56 375.41 292.8 375.41 292.8 477.17 321.46 477.17 321.46 252.07 292.8 252.07 292.8 354.15"/>
      <path d="m213.15,387.35s.47,25.17,1.96,32.65c1.82,9.08-3.39,16.74-6.38,20.02,8.41-.48,25.73-11.49,26.1-11.68-13.34,12.73-30.25,16.72-30.77,18.17-5.15,14.41-9.82,9.09-9.82,9.09,0,0,5.75-1.14,6.38-9.33.32-4.17-.25-36.82-.25-36.82,0,0-12.52,3.43-12.03.98,0,0,2.8-.14,6.23-4.45,4.29-5.41,1.88-12.98,1.88-12.98,0,0-12.27,6.87-12.77,1.97-.49-4.91,6.14-1.72,6.14-1.72l.25-10.06s7.61-4.17,9.82-1.23l.25-15.71h0c-5.05-2.96-14.37.95-14.37.95,1.06-1.64,2.4-2.82,3.73-3.67h0c-1.12-1.38.44-4.31.08-6.6h11.05s.24-17.53-.49-23.32c-.69-5.4-6.93-6.32-6.93-6.32-17.34.08-22.66,4.61-24.87,6.32,9.53-8.32,17.11-10.57,22-10.91-.14-.97-.21-2.14-.27-3.57-.25-5.89.25-38.05.25-38.05,0,0-.98-6.38,6.14-6.38s6.63,7.85,6.63,7.85l.21,41.53s14.37-.9,28.26,11.68v-53.36c0-17.52-14.2-31.71-31.71-31.71h-7.05c-17.52,0-31.72,14.2-31.72,31.72v49.78c0,1.67.5,3.25,1.37,4.57-3.71,3.4-15.4,15.5-19.06,35.84,0,0,6.95-23.26,22.26-33.03.58.28,1.19.49,1.84.63,6.49,1.33,3.03,11.61,3.48,14.56.56,3.64-.42,5.88-3.64,7-.4.14-.8.33-1.2.55-3.21,1.79-5.09,5.28-5.03,8.95l.21,13.88s1.82-7.14,8.54-14c6.72-6.86,19.46-4.2,12.18-1.4-7.28,2.8-11.48,15.26-11.48,24.08s12.04,14.14,2.8,13.16c-9.24-.98-12.71-9.63-12.71-9.63,1.35,17.38,25.59,14.39,25.59,14.39-7.46,3.59-15.04,2.23-15.04,2.23.09,4.21.39,19.8-.03,30.34-.09,2.15-.28,3.82-.57,5.13,8.07,2.36,25.4-2.65,25.4-2.65-8.96,4.58-28.48,7.61-28.48,7.61-1.09.63-2.21.98-2.98,2.42-1.97,3.69.73,6.87,1.22,7.86,0,0,7.86,18.31,35.35,15.54,27.49-2.77,30.93-28.06,30.68-39.84-.25-11.78,7.37-7.11,9.82-20.86,2.45-13.74,0-32.15,0-32.15h-28.47Z"/>
      <path d="m20.27,221.08c3.11,2.69,6.6,4.67,10.47,5.96,3.87,1.29,7.73,1.93,11.59,1.93h5.8c4.07,0,8.05-.64,11.91-1.93,3.87-1.29,7.29-3.27,10.3-5.96,3-2.68,5.42-6.17,7.25-10.47,1.82-4.29,2.74-9.34,2.74-15.13v-59.57h-28.66v55.39c0,9.23-1.93,13.85-5.79,13.85h-1.29c-3.87,0-5.8-4.61-5.8-13.85V37.68c0-5.15.49-8.75,1.45-10.79.97-2.04,2.41-3.06,4.35-3.06h1.29c1.93,0,3.38,1.08,4.35,3.22.97,2.15,1.45,5.69,1.45,10.63v54.74h28.66v-58.93c0-5.8-.92-10.84-2.74-15.14-1.82-4.29-4.24-7.78-7.25-10.47-3.01-2.68-6.44-4.67-10.3-5.96-3.87-1.29-7.84-1.93-11.91-1.93h-5.8c-3.87,0-7.73.64-11.59,1.93-3.87,1.29-7.36,3.28-10.47,5.96-3.12,2.69-5.59,6.18-7.41,10.47-1.82,4.3-2.74,9.34-2.74,15.14v161.98c0,5.8.91,10.84,2.74,15.13,1.82,4.3,4.29,7.79,7.41,10.47Z"/>
      <path d="m111.57,204.92l-6.36,22.12h24.8l4.35-32.49c.09-.67.13-1.33.13-1.99,0-5.23-2.75-10.14-7.32-12.85-2.97-1.76-5.25-6.47-6.42-9.46-4.92,2.31-11.57,10.56-11.57,10.56,2.29-7.51,12.3-23.06,12.91-24.01.02-.03,27.88,12.29,27.88,12.29l4.83,57.96h27.37l-10.15-98.12c-.35-3.41-1.07-6.77-2.13-10.01-1.06-3.24-2.46-6.37-4.19-9.34-1.76-3.01-3.18-6.19-4.24-9.49-7.75,2.34-15.74,12.81-15.99,13.04,5.78-13.45,13.85-23.41,13.85-23.41L151.17,1.93h-36.39l-15.24,154.52c-.1.97-.14,1.94-.14,2.92,0,6.78,2.33,13.39,6.66,18.68,6.13,7.51,8.19,17.55,5.51,26.86Zm18.72-71.85l1.55-52.88h.97l1.75,21.51c.25,3.05,1.45,5.85,3.31,8.09,1.88,2.24,4.42,3.91,7.38,4.7,9.03,2.4,13.44,12.61,9,20.83l-6.58,12.18-9.89-6.01c-4.55,1.21-14.15,11.83-14.15,11.83,1.94-6.25,6.66-20.24,6.66-20.24Z"/>
      <path d="m191.82,79.04c3.22,5.98,4.91,12.68,4.91,19.48v128.52h24.16V90.81h.32l14.17,136.22h20.61l14.49-136.22h.64v111.75c0,4.3-1.41,8.48-4.02,11.9l-1.83,2.41c-1.12,1.47-2.03,3.09-2.69,4.8-.67,1.71-1.09,3.52-1.25,5.36h23.51l.05-.73c.11-1.77.46-3.5,1.04-5.16-6.1-.54-18.01.35-18.01.35,10.09-3.29,21.01-5.97,21.01-5.97l2.83-4.18c2.08-3.07,3.24-6.68,3.36-10.39l4.61-149.39c.15-5.11-1.57-10.1-4.82-14.05,0,0-5.26-5.22-6.73-8.16-18.19-1.55-38.35,6.87-38.35,6.87,18.07-11.62,34.99-15.83,34.99-15.83V1.93h-36.39l-3.04,30.69c-.07.7-.1,1.39-.1,2.09,0,5.37,2.05,10.57,5.78,14.51,4.77,5.04,6.76,12.11,5.32,18.9l-10.38,48.78h-.64l-1.08-43.2c-.07-2.89-1.1-5.59-2.82-7.74-1.72-2.15-4.12-3.75-6.93-4.46-4.06-1.03-7.27-3.93-8.79-7.64-18.83,3.42-34.12,15.5-34.57,15.88,14.17-20.39,33.58-26.12,33.58-26.12l-.8-41.69h-37.04v57.63c0,3.4.42,6.77,1.24,10.04.82,3.27,2.05,6.44,3.66,9.43Z"/>
      <path d="m384.95,204.16l-15.78-169.75c-.23-2.54-1.98-4.7-4.43-5.45l-2.39-.73c-.77-.24-1.47-.62-2.07-1.1h0s-17.48-7.03-35.99-6.82c0,0,11.93-3.77,33.35-.61l-1.65-17.76h-36.39l-1.65,18.94c-.02.19-.02.37-.02.56,0,2.77,1.82,5.25,4.53,6.04,2.88.85,4.77,3.61,4.51,6.6l-15.55,178.2c-.26,2.99-2.38,5.5-5.29,6.26l-.7.18c-2.91.76-5.03,3.27-5.29,6.26l-.17,2.05h24.79l.06-.76c.08-1.04.39-2.03.88-2.9-7.58.02-19.09-1.78-19.09-1.78,8.18-.07,19.36-2.1,23.7-4.02,3.18-1.41,5.47-3.52,5.88-6.29.02-.16.04-.32.05-.48l3.2-41.74h15.46l3.14,37.74c.02.18.02.35.02.53,0,2.79-1.84,5.27-4.55,6.06-2.89.84-4.79,3.59-4.54,6.58l.59,7.04h27.37l-.85-9.15c-8.36.18-21.18-.77-21.18-.77,10.95-1.01,19.94-4.3,24.62-6.33.31-.13.63-.24.96-.32.97-.23,1.83-.7,2.54-1.34,1.36-1.21,2.13-3.04,1.95-4.97Zm-43.6-56.66l5.48-67.31h.96l5.48,67.31h-11.91Z"/>
      <path d="m398.51,208.82c3.13-1.29,14.22-5.5,21.07-8.61,7.96-3.62,9.87-9.77,10.71-14.03.1-.6.18-1.19.24-1.79.15-1.35.23-2.72.23-4.1v-115.64c0-1.96-.46-3.86-1.33-5.56-.86-1.7-2.12-3.2-3.7-4.36h0c-.55-.41-1.06-.85-1.52-1.33-3.24-2.66-11.71-8.8-25.84-13.64,1.3.35,22.34,5.71,22.34,5.05V1.93h-28.66v31.66c0,1.95.46,3.83,1.33,5.51.86,1.68,2.12,3.16,3.7,4.3,3.16,2.27,5.03,5.92,5.03,9.81v135.59c0,2.2-.45,4.35-1.31,6.33-.86,1.98-2.11,3.78-3.72,5.29-3.21,3.01-5.02,7.21-5.02,11.61v15h55.06v-21.26h-26.4s-15.87.51-22.2,3.04Z"/>
      <path d="m520.3,216.15s-28.76,7.91-52.77,5.21c0,0,31.17-.97,63.12-18.16h-29.63v-39.04c-8.69-8-14.15-19.47-14.15-32.19s5.45-24.19,14.15-32.19v-42.19c0-1.77-.49-3.47-1.36-4.94-11.67-8.61-31.88-13.72-31.88-13.72,8.61,0,17.04,1.07,24.14,2.38-.66-1.31-1.01-2.77-1.01-4.29v-11.25h27.38V1.93h-56.04v34.15c0,2,.47,3.95,1.33,5.7.87,1.75,2.13,3.3,3.72,4.52,3.19,2.44,5.06,6.21,5.06,10.22v130.19c0,2.87-.44,5.71-1.29,8.42-.85,2.71-2.11,5.29-3.76,7.64-3.29,4.71-5.06,10.32-5.06,16.06v8.18h58.29l-.23-10.89Z"/>
      <path d="m597.17,7.89c-3.01-2.68-6.44-4.67-10.3-5.96-3.87-1.29-7.84-1.93-11.91-1.93h-5.8c-3.87,0-7.73.64-11.59,1.93-3.87,1.29-7.35,3.28-10.47,5.96-3.11,2.69-5.59,6.18-7.4,10.47-1.83,4.3-2.74,9.34-2.74,15.13v36.35c0,3.25.78,6.4,2.22,9.21,1.44,2.81,3.53,5.29,6.16,7.19,2.66,1.92,4.77,4.42,6.2,7.26,13.62,7.43,22.89,21.88,22.89,38.47,0,18-10.91,33.49-26.48,40.21l-1.42,16.93c0,3.49.23,6.74.99,9.66,2.58,9.96-8.56,10.13-7.83,11.83,1.82,4.3,4.29,7.79,7.4,10.47,3.11,2.69,6.6,4.67,10.47,5.96,3.87,1.29,7.73,1.93,11.59,1.93h5.8c4.07,0,8.05-.64,11.91-1.93,3.87-1.29,7.29-3.27,10.3-5.96,3.01-2.68,5.42-6.17,7.25-10.47,1.82-4.29,2.74-9.34,2.74-15.14V33.49c0-5.8-.92-10.84-2.74-15.13-1.83-4.29-4.24-7.78-7.25-10.47Zm-11.94,183.11c-3.5,2.91-7.04,6.07-7.2,7-.78,4.76-2.56,7.14-5.33,7.14h-1.29c-2.62,0-1.34.46.64-3.8-.31.43-5.18,3.67-20.86,4.77,0,0,20.86-4.77,23.99-19.2v-82.41s-3.81-17.89-28.7-24.31c0,0,13.26,1.66,22.49,7.7-2.19-3.71-3.36-7.95-3.36-12.29v-37.91c0-9.23,1.93-13.85,5.8-13.85h1.29c3.87,0,5.8,4.62,5.8,13.85v57.85c0,1.74.37,3.43,1.06,4.97.7,1.55,1.72,2.95,3.01,4.1,4.12,3.66,6.62,8.81,6.93,14.31l2.26,57.41c.22,5.64-2.2,11.06-6.54,14.68Z"/>
      <polygon points="680.26 1.93 680.26 134.61 679.94 134.61 657.39 1.93 625.51 1.93 625.51 227.03 649.66 227.03 649.66 91.13 649.98 91.13 674.92 227.03 706.66 227.03 706.66 1.93 680.26 1.93"/>
      <path d="m497.24,131.97c0,18.42,14.98,33.4,33.4,33.4s33.4-14.99,33.4-33.4-14.99-33.4-33.4-33.4-33.4,14.99-33.4,33.4Zm33.4-28.49c15.71,0,28.49,12.78,28.49,28.49s-12.78,28.49-28.49,28.49-28.49-12.78-28.49-28.49,12.78-28.49,28.49-28.49Z"/>
      <path d="m530.65,156.57c13.59,0,24.6-11.01,24.6-24.6s-11.01-24.61-24.6-24.61-24.61,11.02-24.61,24.61,11.02,24.6,24.61,24.6Zm6.62-36.18c2.74,0,4.95,2.22,4.95,4.95s-2.21,4.95-4.95,4.95-4.95-2.22-4.95-4.95,2.22-4.95,4.95-4.95Z"/>
      <path d="m118.65,446.56c5.89-2.21,7.37-3.43,7.12-12.27-.18-6.45-.23-25.33-.24-35.05,0-3.57-1.03-7.04-2.9-10.07-1.97-3.2-4.23-7.79-4.23-12.07h13.71s-.46-4.18,4.46-8.84c0,0,.25-12.03,0-12.03s-19.64-1.22-19.64-1.22c0,0,.74-1.23.98-5.4.25-4.18,2.7-33.87,5.89-40.26,3.19-6.38,1.72-12.52,1.72-17.43v-13.99h17.18l.46-6.21c-11.06,1.63-23.54-2-23.54-2,15.04,1.06,25.11-2.53,27.62-3.55.01,0,.02,0,.03-.01.15-.08.32-.14.49-.21.02-.02.04-.02.07-.03.02,0,.03-.01.03-.01,4.42-1.72,5.15-8.1,4.91-12.03h-55.47v141.2s.35,5.38-1.36,9.33c.96,20.85,20.71,36.03,21.27,36.24-26.99-9.36-39.39-42.77-41.59-126.18,0,0-6.89,65.29,11.42,110.43l-.29,25.83v28.47h58.42v-22.58h-30.19s-2.21-7.86,3.68-10.06Z"/>
    </g>
  </g>
</svg>